<svg width="512" height="512" viewBox="0 0 512 512" fill="none" xmlns="http://www.w3.org/2000/svg">
<rect x="7" y="7" width="498" height="498" rx="249" fill="url(#paint0_linear_14_127)"/>
<path d="M182.935 151.011C182.935 144.852 189.602 141.003 194.935 144.083L393.467 258.705C398.8 261.784 398.8 269.482 393.467 272.561L194.935 387.184C189.602 390.263 182.935 386.414 182.935 380.256L182.935 151.011Z" fill="url(#paint1_linear_14_127)"/>
<g filter="url(#filter0_d_14_127)">
<rect x="219.946" y="315.309" width="91.757" height="22.9393" rx="11.4696" fill="white"/>
<rect x="323.173" y="315.309" width="45.8785" height="22.9393" rx="11.4696" fill="white"/>
<rect x="257.904" y="351.129" width="110.828" height="22.9572" rx="11.4786" fill="white"/>
</g>
<defs>
<filter id="filter0_d_14_127" x="215.946" y="315.309" width="157.105" height="66.7772" filterUnits="userSpaceOnUse" color-interpolation-filters="sRGB">
<feFlood flood-opacity="0" result="BackgroundImageFix"/>
<feColorMatrix in="SourceAlpha" type="matrix" values="0 0 0 0 0 0 0 0 0 0 0 0 0 0 0 0 0 0 127 0" result="hardAlpha"/>
<feOffset dy="4"/>
<feGaussianBlur stdDeviation="2"/>
<feComposite in2="hardAlpha" operator="out"/>
<feColorMatrix type="matrix" values="0 0 0 0 0 0 0 0 0 0 0 0 0 0 0 0 0 0 0.25 0"/>
<feBlend mode="normal" in2="BackgroundImageFix" result="effect1_dropShadow_14_127"/>
<feBlend mode="normal" in="SourceGraphic" in2="effect1_dropShadow_14_127" result="shape"/>
</filter>
<linearGradient id="paint0_linear_14_127" x1="96.9707" y1="-5.64454" x2="425.729" y2="511.322" gradientUnits="userSpaceOnUse">
<stop stop-color="#1C1E22"/>
<stop offset="1" stop-color="#2B2F36"/>
</linearGradient>
<linearGradient id="paint1_linear_14_127" x1="182.935" y1="137.154" x2="337.101" y2="410.343" gradientUnits="userSpaceOnUse">
<stop stop-color="#007BFF"/>
<stop offset="1" stop-color="#00D4FF"/>
</linearGradient>
</defs>
</svg>
